<mxfile host="app.diagrams.net" modified="2021-01-08T08:28:09.463Z" agent="5.0 (Windows NT 10.0; Win64; x64) AppleWebKit/537.36 (KHTML, like Gecko) Chrome/87.0.4280.88 Safari/537.36" etag="cPTeWTOCfUwG6Tb6Xaj_" version="14.0.1" type="github">
  <diagram id="rkAlBuv-8TyIP6JiM54z" name="Page-1">
    <mxGraphModel dx="1052" dy="554" grid="1" gridSize="10" guides="1" tooltips="1" connect="1" arrows="1" fold="1" page="1" pageScale="1" pageWidth="827" pageHeight="1169" math="0" shadow="0">
      <root>
        <mxCell id="0" />
        <mxCell id="1" parent="0" />
        <mxCell id="5eR9Agu9faSbhBvVTvhD-3" value="" style="edgeStyle=orthogonalEdgeStyle;rounded=0;orthogonalLoop=1;jettySize=auto;html=1;" edge="1" parent="1" source="5eR9Agu9faSbhBvVTvhD-1" target="5eR9Agu9faSbhBvVTvhD-2">
          <mxGeometry relative="1" as="geometry" />
        </mxCell>
        <mxCell id="5eR9Agu9faSbhBvVTvhD-1" value="&lt;font style=&quot;font-size: 14px&quot;&gt;问题提出&lt;/font&gt;" style="rounded=0;whiteSpace=wrap;html=1;" vertex="1" parent="1">
          <mxGeometry x="180" y="170" width="110" height="30" as="geometry" />
        </mxCell>
        <mxCell id="5eR9Agu9faSbhBvVTvhD-5" value="" style="edgeStyle=orthogonalEdgeStyle;rounded=0;orthogonalLoop=1;jettySize=auto;html=1;" edge="1" parent="1" source="5eR9Agu9faSbhBvVTvhD-2" target="5eR9Agu9faSbhBvVTvhD-4">
          <mxGeometry relative="1" as="geometry" />
        </mxCell>
        <mxCell id="5eR9Agu9faSbhBvVTvhD-2" value="&lt;font style=&quot;font-size: 14px&quot;&gt;文献综述&lt;/font&gt;" style="rounded=0;whiteSpace=wrap;html=1;" vertex="1" parent="1">
          <mxGeometry x="350" y="170" width="110" height="30" as="geometry" />
        </mxCell>
        <mxCell id="5eR9Agu9faSbhBvVTvhD-4" value="&lt;font style=&quot;font-size: 14px&quot;&gt;数据采集、处理与分析&lt;/font&gt;" style="rounded=0;whiteSpace=wrap;html=1;" vertex="1" parent="1">
          <mxGeometry x="520" y="170" width="200" height="30" as="geometry" />
        </mxCell>
        <mxCell id="5eR9Agu9faSbhBvVTvhD-8" value="" style="edgeStyle=orthogonalEdgeStyle;rounded=0;orthogonalLoop=1;jettySize=auto;html=1;" edge="1" parent="1" source="5eR9Agu9faSbhBvVTvhD-6" target="5eR9Agu9faSbhBvVTvhD-7">
          <mxGeometry relative="1" as="geometry" />
        </mxCell>
        <mxCell id="5eR9Agu9faSbhBvVTvhD-10" style="edgeStyle=orthogonalEdgeStyle;rounded=0;orthogonalLoop=1;jettySize=auto;html=1;entryX=0;entryY=0.5;entryDx=0;entryDy=0;" edge="1" parent="1" source="5eR9Agu9faSbhBvVTvhD-6" target="5eR9Agu9faSbhBvVTvhD-9">
          <mxGeometry relative="1" as="geometry" />
        </mxCell>
        <mxCell id="5eR9Agu9faSbhBvVTvhD-6" value="&lt;font style=&quot;font-size: 14px&quot;&gt;房&lt;br&gt;价&lt;/font&gt;" style="rounded=0;whiteSpace=wrap;html=1;" vertex="1" parent="1">
          <mxGeometry x="180" y="230" width="40" height="60" as="geometry" />
        </mxCell>
        <mxCell id="5eR9Agu9faSbhBvVTvhD-16" style="edgeStyle=orthogonalEdgeStyle;rounded=0;orthogonalLoop=1;jettySize=auto;html=1;entryX=0;entryY=0.5;entryDx=0;entryDy=0;" edge="1" parent="1" source="5eR9Agu9faSbhBvVTvhD-7" target="5eR9Agu9faSbhBvVTvhD-14">
          <mxGeometry relative="1" as="geometry" />
        </mxCell>
        <mxCell id="5eR9Agu9faSbhBvVTvhD-7" value="&lt;font style=&quot;font-size: 14px&quot;&gt;房&lt;br&gt;价&lt;br&gt;波&lt;br&gt;动&lt;br&gt;&lt;/font&gt;" style="rounded=0;whiteSpace=wrap;html=1;" vertex="1" parent="1">
          <mxGeometry x="180" y="320" width="40" height="90" as="geometry" />
        </mxCell>
        <mxCell id="5eR9Agu9faSbhBvVTvhD-13" style="edgeStyle=orthogonalEdgeStyle;rounded=0;orthogonalLoop=1;jettySize=auto;html=1;entryX=0;entryY=0.5;entryDx=0;entryDy=0;" edge="1" parent="1" source="5eR9Agu9faSbhBvVTvhD-9" target="5eR9Agu9faSbhBvVTvhD-11">
          <mxGeometry relative="1" as="geometry" />
        </mxCell>
        <mxCell id="5eR9Agu9faSbhBvVTvhD-15" value="" style="edgeStyle=orthogonalEdgeStyle;rounded=0;orthogonalLoop=1;jettySize=auto;html=1;" edge="1" parent="1" source="5eR9Agu9faSbhBvVTvhD-9" target="5eR9Agu9faSbhBvVTvhD-14">
          <mxGeometry relative="1" as="geometry" />
        </mxCell>
        <mxCell id="5eR9Agu9faSbhBvVTvhD-9" value="&lt;font style=&quot;font-size: 14px&quot;&gt;房价波动特征&lt;/font&gt;" style="rounded=0;whiteSpace=wrap;html=1;" vertex="1" parent="1">
          <mxGeometry x="350" y="245" width="110" height="30" as="geometry" />
        </mxCell>
        <mxCell id="5eR9Agu9faSbhBvVTvhD-11" value="&lt;font style=&quot;font-size: 14px&quot;&gt;利用Hedonic模型和网络大数据实证分析&lt;/font&gt;" style="rounded=0;whiteSpace=wrap;html=1;" vertex="1" parent="1">
          <mxGeometry x="520" y="231.88" width="200" height="56.25" as="geometry" />
        </mxCell>
        <mxCell id="5eR9Agu9faSbhBvVTvhD-18" style="edgeStyle=orthogonalEdgeStyle;rounded=0;orthogonalLoop=1;jettySize=auto;html=1;entryX=0;entryY=0.5;entryDx=0;entryDy=0;" edge="1" parent="1" source="5eR9Agu9faSbhBvVTvhD-14" target="5eR9Agu9faSbhBvVTvhD-17">
          <mxGeometry relative="1" as="geometry" />
        </mxCell>
        <mxCell id="5eR9Agu9faSbhBvVTvhD-14" value="&lt;font style=&quot;font-size: 14px&quot;&gt;影响因素及效应&lt;/font&gt;" style="rounded=0;whiteSpace=wrap;html=1;" vertex="1" parent="1">
          <mxGeometry x="350" y="350.01" width="110" height="30" as="geometry" />
        </mxCell>
        <mxCell id="5eR9Agu9faSbhBvVTvhD-17" value="&lt;font style=&quot;font-size: 14px&quot;&gt;利用面板数据实证分析房价波动影响因素，对影响效应分解&lt;/font&gt;" style="rounded=0;whiteSpace=wrap;html=1;" vertex="1" parent="1">
          <mxGeometry x="520" y="336.88" width="200" height="56.25" as="geometry" />
        </mxCell>
      </root>
    </mxGraphModel>
  </diagram>
</mxfile>
